<?xml version="1.0" encoding="UTF-8" standalone="no"?><!DOCTYPE svg PUBLIC "-//W3C//DTD SVG 1.1//EN" "http://www.w3.org/Graphics/SVG/1.1/DTD/svg11.dtd"><svg width="100%" height="100%" viewBox="0 0 236 66" version="1.1" xmlns="http://www.w3.org/2000/svg" xmlns:xlink="http://www.w3.org/1999/xlink" xml:space="preserve" xmlns:serif="http://www.serif.com/" style="fill-rule:evenodd;clip-rule:evenodd;stroke-linejoin:round;stroke-miterlimit:2;"><path d="M0,0l0,26.6l4.14,0l0,-26.6l-4.14,0Zm4.29,0l2.59,26.6l1.4,0l-2.58,-26.6l-1.41,0Zm6.73,0l-2.58,26.6l1.4,0l2.59,-26.6l-1.41,0Zm1.56,0l0,26.6l4.18,0l0,-26.6l-4.18,0Zm15.69,0l0,20.48c0,3.57 3.23,6.35 6.69,6.35c3.46,0 6.69,-2.78 6.69,-6.35l0,-20.48l-4.18,0l0,20.33c0,1.44 -1.29,2.47 -2.51,2.47c-1.22,0 -2.51,-1.03 -2.51,-2.47l0,-20.33l-4.18,0Zm26.26,0l0,26.6l4.18,0l0,-26.6l-4.18,0Zm4.33,0l3.95,26.6l1.45,0l-3.95,-26.6l-1.45,0Zm5.55,0l0,26.6l4.18,0l0,-26.6l-4.18,0Zm18.05,25.12l0,1.48l11.36,0l0,-1.48l-3.61,0l0,-23.64l3.61,0l0,-1.48l-11.36,0l0,1.48l3.57,0l0,23.64l-3.57,0Z" style="fill:#0000dc;fill-rule:nonzero;"/><path d="M6.27,38.5l-5.74,26.6l2.13,0l1.79,-8.4l7.75,0l1.82,8.4l2.13,0l-5.66,-26.6l-2.05,0l3.42,16.3l-7.07,0l3.49,-16.3l-2.01,0Zm22.72,0l0,26.6l2.06,0l0,-11.25l3.45,0l6.31,11.25l2.36,0l-6.5,-11.48c3.12,-0.26 5.59,-2.88 5.59,-6.11l0,-2.66c0,-3.46 -2.89,-6.35 -6.35,-6.35l-6.92,0Zm6.73,13.41l-4.67,0l0,-11.51l4.67,0c2.43,0 4.52,1.98 4.52,4.48l0,2.4c0,2.73 -1.97,4.63 -4.52,4.63Zm24.81,-11.51l0,24.7l2.06,0l0,-24.7l7.1,0l0,-1.9l-16.26,0l0,1.9l7.1,0Zm27.63,24.93c3.65,0 6.57,-2.59 6.57,-6.35l0,-1.63c0,-4.33 -3.64,-5.82 -6.15,-6.39c-2.32,-0.53 -4.94,-1.4 -4.94,-4.52l0,-1.78c0,-2.47 2.13,-4.41 4.52,-4.41c2.36,0 4.52,1.94 4.52,4.41l0,0.95l2.05,0l0,-0.99c0,-3.65 -2.92,-6.35 -6.57,-6.35c-3.65,0 -6.57,2.7 -6.57,6.35l0,1.82c0,4.45 3.76,5.85 6.08,6.39c2.43,0.53 5.01,1.4 5.01,4.56l0,1.55c0,2.47 -2.13,4.41 -4.48,4.41c-2.4,0 -4.56,-1.94 -4.56,-4.41l0,-0.87l-2.05,0l0,0.91c0,3.76 2.92,6.35 6.57,6.35Z" style="fill:#0000dc;fill-rule:nonzero;"/><path d="M111.29,0.01l0,10.68l3.55,0c3.63,0 5.67,-1.92 5.67,-5.34c0,-3.42 -2.04,-5.34 -5.67,-5.34l-3.55,0Zm2.19,1.89l1.33,0c2.3,0 3.42,1.14 3.42,3.45c0,2.31 -1.12,3.45 -3.42,3.45l-1.33,0l0,-6.9Zm10.71,-0.09l0,-1.8l-2.1,0l0,1.8l2.1,0Zm0,8.88l0,-7.62l-2.1,0l0,7.62l2.1,0Zm4.7,-7.83c-1.92,0 -3.15,1.5 -3.15,3.87c0,2.37 1.21,3.87 3.12,3.87c0.91,0 1.56,-0.35 2.13,-1.14l0.03,0l0,0.67c0,1.49 -0.59,1.97 -1.53,1.97c-0.8,0 -1.28,-0.35 -1.32,-0.93l-2.1,0c0.12,1.5 1.27,2.43 3.37,2.43c2.19,0 3.62,-1.08 3.62,-3.39l0,-7.14l-1.98,0l0,1.02l-0.03,0c-0.59,-0.87 -1.24,-1.23 -2.16,-1.23Zm0.57,1.72c0.98,0 1.62,0.86 1.62,2.15c0,1.29 -0.64,2.14 -1.62,2.14c-0.93,0 -1.53,-0.82 -1.53,-2.14c0,-1.32 0.6,-2.15 1.53,-2.15Zm7.74,-2.77l0,-1.8l-2.1,0l0,1.8l2.1,0Zm0,8.88l0,-7.62l-2.1,0l0,7.62l2.1,0Zm5.45,-1.58c-0.71,0 -0.99,-0.33 -0.99,-1.17l0,-3.31l1.46,0l0,-1.56l-1.46,0l0,-1.98l-2.1,0l0,1.98l-1.22,0l0,1.56l1.22,0l0,3.69c0,1.77 0.77,2.47 2.53,2.47c0.35,0 0.82,-0.06 1.1,-0.15l0,-1.6c-0.13,0.04 -0.34,0.07 -0.54,0.07Zm5.21,-6.91l2.1,-2.19l-2.6,0l-1.15,2.19l1.65,0Zm-0.29,0.63c-2.17,0 -3.22,1.17 -3.29,2.62l2.03,0c0.03,-0.72 0.48,-1.15 1.26,-1.15c0.74,0 1.25,0.39 1.25,1.35l0,0.27c-0.48,0.03 -1.34,0.12 -1.91,0.21c-2.2,0.34 -2.95,1.18 -2.95,2.43c0,1.32 0.98,2.31 2.6,2.31c1.04,0 1.9,-0.39 2.47,-1.2l0.03,0c0,0.37 0.03,0.7 0.1,1.02l1.9,0c-0.14,-0.51 -0.22,-1.13 -0.22,-2.09l0,-2.76c0,-1.99 -1.11,-3.01 -3.27,-3.01Zm1.25,4.65c0,0.69 -0.07,1.09 -0.44,1.45c-0.3,0.3 -0.76,0.44 -1.19,0.44c-0.74,0 -1.13,-0.39 -1.13,-0.96c0,-0.62 0.36,-0.9 1.23,-1.05c0.45,-0.08 1.08,-0.14 1.53,-0.17l0,0.29Zm6.08,3.21l0,-10.68l-2.1,0l0,10.68l2.1,0Zm6.26,-7.8c-0.97,0 -1.74,0.46 -2.23,1.14l-0.03,0l0,-0.96l-1.96,0l0,7.62l2.09,0l0,-4.08c0,-1.38 0.63,-2.07 1.5,-2.07c0.83,0 1.34,0.52 1.34,1.68l0,4.47l2.1,0l0,-4.68c0,-2.07 -1.1,-3.12 -2.81,-3.12Zm6.2,-0.69l2.1,-2.19l-2.6,0l-1.15,2.19l1.65,0Zm0.67,8.49l0,-7.62l-2.09,0l0,7.62l2.09,0Zm12.77,0l-3.21,-4.11l2.89,-3.51l-2.37,0l-2.46,3.07l-0.03,0l0,-6.13l-2.1,0l0,10.68l2.1,0l0,-3.57l0.03,0l2.55,3.57l2.6,0Zm4.95,-7.8c-0.98,0 -1.74,0.46 -2.24,1.14l-0.03,0l0,-0.96l-1.96,0l0,7.62l2.1,0l0,-4.08c0,-1.38 0.63,-2.07 1.5,-2.07c0.82,0 1.33,0.52 1.33,1.68l0,4.47l2.1,0l0,-4.68c0,-2.07 -1.09,-3.12 -2.8,-3.12Zm6.87,-1.08l0,-1.8l-2.1,0l0,1.8l2.1,0Zm0,8.88l0,-7.62l-2.1,0l0,7.62l2.1,0Zm4.14,-6.78l0,-3.9l-2.1,0l0,10.68l2.1,0l0,-4.08c0,-1.4 0.63,-2.07 1.5,-2.07c0.82,0 1.33,0.52 1.33,1.68l0,4.47l2.1,0l0,-4.68c0,-2.07 -1.09,-3.12 -2.8,-3.12c-0.81,0 -1.56,0.33 -2.1,1.02l-0.03,0Zm10.3,-1.08c-2.38,0 -3.9,1.57 -3.9,4.05c0,2.47 1.52,4.05 3.9,4.05c2.39,0 3.9,-1.58 3.9,-4.05c0,-2.48 -1.51,-4.05 -3.9,-4.05Zm0,1.62c1.04,0 1.7,0.94 1.7,2.43c0,1.48 -0.66,2.43 -1.7,2.43c-1.03,0 -1.69,-0.95 -1.69,-2.43c0,-1.49 0.66,-2.43 1.69,-2.43Zm9.53,6.24l2.56,-7.62l-2.19,0l-0.88,3c-0.32,1.08 -0.6,2.19 -0.84,3.3l-0.03,0c-0.24,-1.11 -0.53,-2.22 -0.84,-3.3l-0.89,-3l-2.19,0l2.57,7.62l2.73,0Zm7.71,-7.8c-0.98,0 -1.74,0.46 -2.24,1.14l-0.03,0l0,-0.96l-1.96,0l0,7.62l2.1,0l0,-4.08c0,-1.38 0.63,-2.07 1.5,-2.07c0.82,0 1.33,0.52 1.33,1.68l0,4.47l2.1,0l0,-4.68c0,-2.07 -1.09,-3.12 -2.8,-3.12Zm7.75,-0.06c-2.17,0 -3.22,1.17 -3.3,2.62l2.04,0c0.03,-0.72 0.48,-1.15 1.26,-1.15c0.74,0 1.25,0.39 1.25,1.35l0,0.27c-0.48,0.03 -1.34,0.12 -1.91,0.21c-2.2,0.34 -2.95,1.18 -2.95,2.43c0,1.32 0.97,2.31 2.59,2.31c1.05,0 1.91,-0.39 2.48,-1.2l0.03,0c0,0.37 0.03,0.7 0.1,1.02l1.89,0c-0.13,-0.51 -0.21,-1.13 -0.21,-2.09l0,-2.76c0,-1.99 -1.11,-3.01 -3.27,-3.01Zm1.25,4.65c0,0.69 -0.08,1.09 -0.44,1.45c-0.3,0.3 -0.76,0.44 -1.2,0.44c-0.73,0 -1.12,-0.39 -1.12,-0.96c0,-0.62 0.36,-0.9 1.23,-1.05c0.45,-0.08 1.08,-0.14 1.53,-0.17l0,0.29Z" style="fill:#0000dc;fill-rule:nonzero;"/><path d="M117.35,26.08l0.82,2.61l2.31,0l-3.7,-10.68l-2.97,0l-3.7,10.68l2.31,0l0.83,-2.61l4.1,0Zm-0.6,-1.89l-2.89,0l0.22,-0.71c0.43,-1.38 0.84,-2.79 1.2,-4.17l0.03,0c0.36,1.38 0.78,2.79 1.22,4.17l0.22,0.71Zm8.85,-3.24c-0.9,0 -1.57,0.37 -2.09,1.2l-0.03,0l0,-1.08l-1.93,0l0,7.62l2.1,0l0,-3.6c0,-1.5 0.69,-2.31 1.98,-2.31c0.21,0 0.42,0.03 0.66,0.07l0,-1.81c-0.21,-0.06 -0.48,-0.09 -0.69,-0.09Zm6.06,-0.06c-0.97,0 -1.74,0.46 -2.24,1.14l-0.02,0l0,-0.96l-1.97,0l0,7.62l2.1,0l0,-4.08c0,-1.38 0.63,-2.07 1.5,-2.07c0.82,0 1.34,0.52 1.34,1.68l0,4.47l2.1,0l0,-4.68c0,-2.07 -1.1,-3.12 -2.81,-3.12Zm7.75,-0.06c-2.17,0 -3.22,1.17 -3.29,2.62l2.03,0c0.04,-0.72 0.48,-1.15 1.26,-1.15c0.74,0 1.25,0.39 1.25,1.35l0,0.27c-0.48,0.03 -1.34,0.12 -1.91,0.21c-2.2,0.34 -2.95,1.18 -2.95,2.43c0,1.32 0.98,2.31 2.6,2.31c1.04,0 1.9,-0.39 2.47,-1.2l0.03,0c0,0.37 0.03,0.7 0.1,1.02l1.89,0c-0.13,-0.51 -0.2,-1.13 -0.2,-2.09l0,-2.76c0,-1.99 -1.12,-3.01 -3.28,-3.01Zm1.25,4.65c0,0.69 -0.07,1.09 -0.44,1.45c-0.3,0.3 -0.76,0.44 -1.19,0.44c-0.74,0 -1.13,-0.39 -1.13,-0.96c0,-0.62 0.36,-0.9 1.23,-1.05c0.45,-0.08 1.08,-0.14 1.53,-0.17l0,0.29Zm16.81,3.21l0,-10.68l-2.11,0l0,4.11c0,1.54 0.04,3.09 0.12,4.63l-0.03,0c-0.6,-1.48 -1.27,-2.98 -1.95,-4.41l-2.07,-4.33l-3.14,0l0,10.68l2.12,0l0,-4.11c0,-1.55 -0.04,-3.09 -0.12,-4.63l0.03,0c0.6,1.48 1.27,2.98 1.95,4.4l2.07,4.34l3.13,0Zm5.66,-7.86c-2.39,0 -3.9,1.57 -3.9,4.05c0,2.47 1.51,4.05 3.9,4.05c2.38,0 3.9,-1.58 3.9,-4.05c0,-2.48 -1.52,-4.05 -3.9,-4.05Zm0,1.62c1.03,0 1.69,0.94 1.69,2.43c0,1.48 -0.66,2.43 -1.69,2.43c-1.04,0 -1.7,-0.95 -1.7,-2.43c0,-1.49 0.66,-2.43 1.7,-2.43Zm9.52,6.24l2.57,-7.62l-2.19,0l-0.89,3c-0.31,1.08 -0.6,2.19 -0.84,3.3l-0.03,0c-0.24,-1.11 -0.52,-2.22 -0.84,-3.3l-0.88,-3l-2.19,0l2.56,7.62l2.73,0Zm6.56,-8.49l2.1,-2.19l-2.6,0l-1.15,2.19l1.65,0Zm-0.29,0.63c-2.17,0 -3.22,1.17 -3.3,2.62l2.04,0c0.03,-0.72 0.48,-1.15 1.26,-1.15c0.74,0 1.25,0.39 1.25,1.35l0,0.27c-0.48,0.03 -1.34,0.12 -1.91,0.21c-2.2,0.34 -2.95,1.18 -2.95,2.43c0,1.32 0.97,2.31 2.59,2.31c1.05,0 1.91,-0.39 2.48,-1.2l0.03,0c0,0.37 0.03,0.7 0.1,1.02l1.89,0c-0.13,-0.51 -0.21,-1.13 -0.21,-2.09l0,-2.76c0,-1.99 -1.11,-3.01 -3.27,-3.01Zm1.25,4.65c0,0.69 -0.08,1.09 -0.44,1.45c-0.3,0.3 -0.76,0.44 -1.2,0.44c-0.73,0 -1.12,-0.39 -1.12,-0.96c0,-0.62 0.36,-0.9 1.23,-1.05c0.45,-0.08 1.08,-0.14 1.53,-0.17l0,0.29Zm11.25,3.21l-3.21,-4.11l2.89,-3.51l-2.36,0l-2.46,3.07l-0.03,0l0,-6.13l-2.1,0l0,10.68l2.1,0l0,-3.57l0.03,0l2.54,3.57l2.6,0Zm3.66,-7.86c-2.17,0 -3.22,1.17 -3.3,2.62l2.04,0c0.03,-0.72 0.48,-1.15 1.26,-1.15c0.74,0 1.25,0.39 1.25,1.35l0,0.27c-0.48,0.03 -1.34,0.12 -1.91,0.21c-2.2,0.34 -2.95,1.18 -2.95,2.43c0,1.32 0.97,2.31 2.59,2.31c1.05,0 1.91,-0.39 2.48,-1.2l0.03,0c0,0.37 0.03,0.7 0.1,1.02l1.89,0c-0.13,-0.51 -0.21,-1.13 -0.21,-2.09l0,-2.76c0,-1.99 -1.11,-3.01 -3.27,-3.01Zm1.25,4.65c0,0.69 -0.08,1.09 -0.44,1.45c-0.3,0.3 -0.76,0.44 -1.2,0.44c-0.73,0 -1.12,-0.39 -1.12,-0.96c0,-0.62 0.36,-0.9 1.23,-1.05c0.45,-0.08 1.08,-0.14 1.53,-0.17l0,0.29Z" style="fill:#0000dc;fill-rule:nonzero;"/></svg>