<?xml version="1.0" encoding="UTF-8" standalone="no"?><!DOCTYPE svg PUBLIC "-//W3C//DTD SVG 1.1//EN" "http://www.w3.org/Graphics/SVG/1.1/DTD/svg11.dtd"><svg width="100%" height="100%" viewBox="0 0 169 66" version="1.1" xmlns="http://www.w3.org/2000/svg" xmlns:xlink="http://www.w3.org/1999/xlink" xml:space="preserve" xmlns:serif="http://www.serif.com/" style="fill-rule:evenodd;clip-rule:evenodd;stroke-linejoin:round;stroke-miterlimit:2;"><path d="M0,0l0,26.6l4.14,0l0,-26.6l-4.14,0Zm4.29,0l2.59,26.6l1.4,0l-2.58,-26.6l-1.41,0Zm6.73,0l-2.58,26.6l1.4,0l2.59,-26.6l-1.41,0Zm1.56,0l0,26.6l4.18,0l0,-26.6l-4.18,0Zm15.69,0l0,20.48c0,3.57 3.23,6.35 6.69,6.35c3.46,0 6.69,-2.78 6.69,-6.35l0,-20.48l-4.18,0l0,20.33c0,1.44 -1.29,2.47 -2.51,2.47c-1.22,-0 -2.51,-1.03 -2.51,-2.47l0,-20.33l-4.18,0Zm26.26,0l0,26.6l4.18,0l0,-26.6l-4.18,0Zm4.33,0l3.95,26.6l1.45,0l-3.95,-26.6l-1.45,0Zm5.55,0l0,26.6l4.18,0l0,-26.6l-4.18,0Zm18.05,25.12l0,1.48l11.36,0l0,-1.48l-3.61,0l0,-23.64l3.61,0l0,-1.48l-11.36,0l0,1.48l3.57,0l-0,23.64l-3.57,0Z" style="fill:#0000dc;fill-rule:nonzero;"/><path d="M6.27,38.5l-5.74,26.6l2.13,0l1.79,-8.4l7.75,0l1.82,8.4l2.13,0l-5.66,-26.6l-2.05,0l3.42,16.3l-7.07,0l3.49,-16.3l-2.01,0Zm22.72,0l0,26.6l2.06,0l0,-11.25l3.45,0l6.31,11.25l2.36,0l-6.5,-11.48c3.12,-0.26 5.59,-2.88 5.59,-6.11l0,-2.66c0,-3.46 -2.89,-6.35 -6.35,-6.35l-6.92,0Zm6.73,13.41l-4.67,0l0,-11.51l4.67,0c2.43,0 4.52,1.98 4.52,4.48l0,2.4c0,2.73 -1.97,4.63 -4.52,4.63Zm24.81,-11.51l0,24.7l2.06,0l0,-24.7l7.1,0l0,-1.9l-16.26,0l0,1.9l7.1,0Zm27.63,24.93c3.65,0 6.57,-2.59 6.57,-6.35l0,-1.63c0,-4.33 -3.64,-5.82 -6.15,-6.39c-2.32,-0.53 -4.94,-1.4 -4.94,-4.52l0,-1.78c0,-2.47 2.13,-4.41 4.52,-4.41c2.36,0 4.52,1.94 4.52,4.41l0,0.95l2.05,0l0,-0.99c0,-3.65 -2.92,-6.35 -6.57,-6.35c-3.65,0 -6.57,2.7 -6.57,6.35l0,1.82c0,4.45 3.76,5.85 6.08,6.39c2.43,0.53 5.01,1.4 5.01,4.56l0,1.55c0,2.47 -2.13,4.41 -4.48,4.41c-2.4,0 -4.56,-1.94 -4.56,-4.41l0,-0.87l-2.05,0l0,0.91c0,3.76 2.92,6.35 6.57,6.35Z" style="fill:#0000dc;fill-rule:nonzero;"/><path d="M111.29,0.01l0,10.68l4.17,0c2.4,0 3.81,-1.14 3.81,-2.93c0,-1.38 -0.66,-2.17 -2.12,-2.49l0,-0.03c1.25,-0.46 1.86,-1.26 1.86,-2.49c0,-1.63 -1.23,-2.74 -3.88,-2.74l-3.84,0Zm2.21,1.8l1.66,0c1.21,0 1.74,0.39 1.74,1.27c0,0.92 -0.56,1.32 -1.84,1.32l-1.56,0l0,-2.59Zm0,4.33l1.57,0c1.41,0 1.96,0.44 1.96,1.4c0,0.9 -0.53,1.33 -1.9,1.33l-1.63,0l0,-2.73Zm10.63,3.3c-0.9,0 -1.66,-0.55 -1.73,-2.13l5.48,0c0,-0.84 -0.07,-1.42 -0.24,-1.95c-0.48,-1.54 -1.77,-2.53 -3.52,-2.53c-2.39,0 -3.78,1.74 -3.78,3.99c0,2.43 1.39,4.11 3.79,4.11c2.02,0 3.35,-1.16 3.65,-2.55l-2.15,0c-0.1,0.61 -0.66,1.06 -1.5,1.06Zm-0.01,-5.13c0.83,0 1.52,0.53 1.66,1.68l-3.33,0c0.17,-1.15 0.81,-1.68 1.67,-1.68Zm8.29,-1.48c-2.17,0 -3.22,1.17 -3.3,2.62l2.04,0c0.03,-0.72 0.48,-1.15 1.26,-1.15c0.74,0 1.24,0.39 1.24,1.35l0,0.27c-0.47,0.03 -1.33,0.12 -1.9,0.21c-2.21,0.34 -2.96,1.18 -2.96,2.43c0,1.32 0.98,2.31 2.6,2.31c1.05,0 1.9,-0.39 2.48,-1.2l0.03,0c0,0.37 0.03,0.7 0.1,1.02l1.89,0c-0.14,-0.51 -0.21,-1.13 -0.21,-2.09l0,-2.76c0,-1.99 -1.11,-3.01 -3.27,-3.01Zm1.24,4.65c0,0.69 -0.07,1.09 -0.43,1.45c-0.3,0.3 -0.76,0.44 -1.2,0.44c-0.74,0 -1.12,-0.39 -1.12,-0.96c0,-0.62 0.35,-0.9 1.22,-1.05c0.45,-0.08 1.09,-0.14 1.53,-0.17l0,0.29Zm6.53,3.39c0.97,0 1.74,-0.47 2.24,-1.14l0.02,0l0,0.96l1.97,0l0,-7.62l-2.1,0l0,4.08c0,1.38 -0.63,2.07 -1.5,2.07c-0.82,0 -1.34,-0.53 -1.34,-1.68l0,-4.47l-2.1,0l0,4.68c0,2.07 1.1,3.12 2.81,3.12Zm9.69,-1.76c-0.72,0 -0.99,-0.33 -0.99,-1.17l0,-3.31l1.46,0l0,-1.56l-1.46,0l0,-1.98l-2.1,0l0,1.98l-1.23,0l0,1.56l1.23,0l0,3.69c0,1.77 0.77,2.47 2.52,2.47c0.36,0 0.82,-0.06 1.11,-0.15l0,-1.6c-0.13,0.04 -0.35,0.07 -0.54,0.07Zm8.8,-6.04l-2.16,0l-0.82,2.55c-0.35,1.05 -0.63,2.13 -0.89,3.19l-0.03,0c-0.24,-1.06 -0.52,-2.14 -0.83,-3.19l-0.79,-2.55l-2.25,0l2.16,6.19c0.3,0.86 0.36,1.1 0.36,1.38c0,0.75 -0.55,1.23 -1.39,1.23c-0.31,0 -0.6,-0.04 -0.81,-0.12l0,1.68c0.31,0.08 0.72,0.12 1.09,0.12c1.91,0 2.87,-0.67 3.63,-2.82l2.73,-7.66Z" style="fill:#0000dc;fill-rule:nonzero;"/><path d="M115.34,20.88c-0.89,0 -1.72,0.41 -2.19,1.19l-0.03,0l0,-1l-2.04,0l0,10.39l2.1,0l0,-3.69l0.03,0c0.46,0.72 1.29,1.11 2.16,1.11c1.91,0 3.13,-1.57 3.13,-4c0,-2.43 -1.24,-4 -3.16,-4Zm-0.67,1.6c1,0 1.64,0.94 1.64,2.4c0,1.45 -0.64,2.4 -1.64,2.4c-0.95,0 -1.59,-0.89 -1.59,-2.4c0,-1.52 0.64,-2.4 1.59,-2.4Zm8.36,-1.65c-2.17,0 -3.22,1.17 -3.3,2.62l2.05,0c0.03,-0.72 0.47,-1.15 1.25,-1.15c0.74,0 1.25,0.39 1.25,1.35l0,0.27c-0.48,0.03 -1.33,0.12 -1.91,0.21c-2.2,0.34 -2.95,1.18 -2.95,2.43c0,1.32 0.97,2.31 2.59,2.31c1.05,0 1.91,-0.39 2.48,-1.2l0.03,0c0,0.37 0.03,0.7 0.1,1.02l1.89,0c-0.13,-0.51 -0.2,-1.13 -0.2,-2.09l0,-2.76c0,-1.99 -1.11,-3.01 -3.28,-3.01Zm1.25,4.65c0,0.69 -0.08,1.09 -0.44,1.45c-0.3,0.3 -0.76,0.44 -1.2,0.44c-0.73,0 -1.12,-0.39 -1.12,-0.96c0,-0.62 0.36,-0.9 1.23,-1.05c0.45,-0.08 1.08,-0.14 1.53,-0.17l0,0.29Zm7.25,1.63c-0.72,0 -1,-0.33 -1,-1.17l0,-3.31l1.46,0l0,-1.56l-1.46,0l0,-1.98l-2.09,0l0,1.98l-1.24,0l0,1.56l1.24,0l0,3.69c0,1.77 0.76,2.47 2.51,2.47c0.36,0 0.83,-0.06 1.11,-0.15l0,-1.6c-0.13,0.04 -0.34,0.07 -0.53,0.07Zm5.35,0c-0.72,0 -0.99,-0.33 -0.99,-1.17l0,-3.31l1.45,0l0,-1.56l-1.45,0l0,-1.98l-2.1,0l0,1.98l-1.23,0l0,1.56l1.23,0l0,3.69c0,1.77 0.77,2.47 2.52,2.47c0.36,0 0.82,-0.06 1.11,-0.15l0,-1.6c-0.14,0.04 -0.35,0.07 -0.54,0.07Zm5.02,0.33c-0.9,0 -1.66,-0.55 -1.72,-2.13l5.47,0c0,-0.84 -0.07,-1.42 -0.24,-1.95c-0.48,-1.54 -1.77,-2.53 -3.52,-2.53c-2.39,0 -3.78,1.74 -3.78,3.99c0,2.43 1.39,4.11 3.79,4.11c2.03,0 3.35,-1.16 3.65,-2.55l-2.15,0c-0.1,0.61 -0.66,1.06 -1.5,1.06Zm-0.01,-5.13c0.84,0 1.53,0.53 1.66,1.68l-3.33,0c0.17,-1.15 0.81,-1.68 1.67,-1.68Zm9.36,-1.36c-0.9,0 -1.58,0.37 -2.09,1.2l-0.03,0l0,-1.08l-1.93,0l0,7.62l2.1,0l0,-3.6c0,-1.5 0.69,-2.31 1.98,-2.31c0.21,0 0.42,0.03 0.66,0.07l0,-1.81c-0.21,-0.06 -0.48,-0.09 -0.69,-0.09Zm6.06,-0.06c-0.98,0 -1.74,0.46 -2.24,1.14l-0.03,0l0,-0.96l-1.96,0l0,7.62l2.1,0l0,-4.08c0,-1.38 0.63,-2.07 1.5,-2.07c0.82,0 1.33,0.52 1.33,1.68l0,4.47l2.1,0l0,-4.68c0,-2.07 -1.09,-3.12 -2.8,-3.12Zm7.6,-0.06c-1.89,0 -3.15,0.97 -3.15,2.34c0,1.77 1.37,2.07 2.64,2.4c1.19,0.31 1.76,0.45 1.76,1.11c0,0.45 -0.38,0.73 -1.11,0.73c-0.87,0 -1.34,-0.43 -1.34,-1.2l-2.13,0c0,1.85 1.31,2.72 3.42,2.72c2.07,0 3.36,-0.96 3.36,-2.39c0,-1.86 -1.5,-2.2 -2.86,-2.56c-1.16,-0.3 -1.64,-0.44 -1.64,-0.98c0,-0.43 0.36,-0.7 1.04,-0.7c0.75,0 1.2,0.33 1.2,1.11l2.01,0c0,-1.7 -1.2,-2.58 -3.2,-2.58Z" style="fill:#0000dc;fill-rule:nonzero;"/></svg>