<?xml version="1.0" encoding="UTF-8" standalone="no"?><!DOCTYPE svg PUBLIC "-//W3C//DTD SVG 1.1//EN" "http://www.w3.org/Graphics/SVG/1.1/DTD/svg11.dtd"><svg width="100%" height="100%" viewBox="0 0 149 66" version="1.1" xmlns="http://www.w3.org/2000/svg" xmlns:xlink="http://www.w3.org/1999/xlink" xml:space="preserve" xmlns:serif="http://www.serif.com/" style="fill-rule:evenodd;clip-rule:evenodd;stroke-linejoin:round;stroke-miterlimit:2;"><path d="M0,0l0,26.6l4.14,0l0,-26.6l-4.14,0Zm4.29,0l2.59,26.6l1.4,0l-2.58,-26.6l-1.41,0Zm6.73,0l-2.58,26.6l1.4,0l2.59,-26.6l-1.41,0Zm1.56,0l0,26.6l4.18,0l0,-26.6l-4.18,0Zm15.69,0l0,20.48c0,3.57 3.23,6.35 6.69,6.35c3.46,0 6.69,-2.78 6.69,-6.35l0,-20.48l-4.18,0l0,20.33c0,1.44 -1.29,2.47 -2.51,2.47c-1.22,-0 -2.51,-1.03 -2.51,-2.47l0,-20.33l-4.18,0Zm26.26,0l0,26.6l4.18,0l0,-26.6l-4.18,0Zm4.33,0l3.95,26.6l1.45,0l-3.95,-26.6l-1.45,0Zm5.55,0l0,26.6l4.18,0l0,-26.6l-4.18,0Zm18.05,25.12l0,1.48l11.36,0l0,-1.48l-3.61,0l0,-23.64l3.61,0l0,-1.48l-11.36,0l0,1.48l3.57,0l-0,23.64l-3.57,0Z" style="fill:#0000dc;fill-rule:nonzero;"/><path d="M6.27,38.5l-5.74,26.6l2.13,0l1.79,-8.4l7.75,0l1.82,8.4l2.13,0l-5.66,-26.6l-2.05,0l3.42,16.3l-7.07,0l3.49,-16.3l-2.01,0Zm22.72,0l0,26.6l2.06,0l0,-11.25l3.45,0l6.31,11.25l2.36,0l-6.5,-11.48c3.12,-0.26 5.59,-2.88 5.59,-6.11l0,-2.66c0,-3.46 -2.89,-6.35 -6.35,-6.35l-6.92,0Zm6.73,13.41l-4.67,0l0,-11.51l4.67,0c2.43,0 4.52,1.98 4.52,4.48l0,2.4c0,2.73 -1.97,4.63 -4.52,4.63Zm24.81,-11.51l0,24.7l2.06,0l0,-24.7l7.1,0l0,-1.9l-16.26,0l0,1.9l7.1,0Zm27.63,24.93c3.65,0 6.57,-2.59 6.57,-6.35l0,-1.63c0,-4.33 -3.64,-5.82 -6.15,-6.39c-2.32,-0.53 -4.94,-1.4 -4.94,-4.52l0,-1.78c0,-2.47 2.13,-4.41 4.52,-4.41c2.36,0 4.52,1.94 4.52,4.41l0,0.95l2.05,0l0,-0.99c0,-3.65 -2.92,-6.35 -6.57,-6.35c-3.65,0 -6.57,2.7 -6.57,6.35l0,1.82c0,4.45 3.76,5.85 6.08,6.39c2.43,0.53 5.01,1.4 5.01,4.56l0,1.55c0,2.47 -2.13,4.41 -4.48,4.41c-2.4,0 -4.56,-1.94 -4.56,-4.41l0,-0.87l-2.05,0l0,0.91c0,3.76 2.92,6.35 6.57,6.35Z" style="fill:#0000dc;fill-rule:nonzero;"/><path d="M116.23,10.69l3.31,-10.68l-2.25,0l-1.28,4.15c-0.43,1.44 -0.84,2.91 -1.15,4.37l-0.03,0c-0.32,-1.46 -0.71,-2.93 -1.16,-4.37l-1.27,-4.15l-2.25,0l3.32,10.68l2.76,0Zm9.34,-5.91l0,-1.71l-6.12,0l0,1.65l3.58,0l0,0.03l-3.73,4.23l0,1.71l6.42,0l0,-1.65l-3.89,0l0,-0.03l3.74,-4.23Zm4.87,-1.95c-2.38,0 -3.9,1.57 -3.9,4.05c0,2.47 1.52,4.05 3.9,4.05c2.39,0 3.9,-1.58 3.9,-4.05c0,-2.48 -1.51,-4.05 -3.9,-4.05Zm0,1.62c1.04,0 1.7,0.94 1.7,2.43c0,1.48 -0.66,2.43 -1.7,2.43c-1.03,0 -1.69,-0.95 -1.69,-2.43c0,-1.49 0.66,-2.43 1.69,-2.43Zm9.5,-1.5c-0.9,0 -1.57,0.37 -2.08,1.2l-0.03,0l0,-1.08l-1.94,0l0,7.62l2.1,0l0,-3.6c0,-1.5 0.69,-2.31 1.98,-2.31c0.21,0 0.42,0.03 0.66,0.07l0,-1.81c-0.21,-0.06 -0.48,-0.09 -0.69,-0.09Zm8.47,0.12l-2.16,0l-0.82,2.55c-0.34,1.05 -0.63,2.13 -0.89,3.19l-0.03,0c-0.23,-1.06 -0.52,-2.14 -0.83,-3.19l-0.78,-2.55l-2.25,0l2.16,6.19c0.29,0.86 0.35,1.1 0.35,1.38c0,0.75 -0.55,1.23 -1.39,1.23c-0.31,0 -0.6,-0.04 -0.81,-0.12l0,1.68c0.32,0.08 0.72,0.12 1.1,0.12c1.9,0 2.86,-0.67 3.63,-2.82l2.72,-7.66Z" style="fill:#0000dc;fill-rule:nonzero;"/><path d="M118.36,28.69l-3.22,-4.11l2.9,-3.51l-2.37,0l-2.46,3.07l-0.03,0l0,-6.13l-2.1,0l0,10.68l2.1,0l0,-3.57l0.03,0l2.55,3.57l2.6,0Zm4.76,-7.74c-0.9,0 -1.57,0.37 -2.08,1.2l-0.03,0l0,-1.08l-1.94,0l0,7.62l2.1,0l0,-3.6c0,-1.5 0.69,-2.31 1.98,-2.31c0.21,0 0.42,0.03 0.66,0.07l0,-1.81c-0.21,-0.06 -0.48,-0.09 -0.69,-0.09Zm4.83,-0.75l2.1,-2.19l-2.59,0l-1.16,2.19l1.65,0Zm-0.28,0.63c-2.18,0 -3.23,1.17 -3.3,2.62l2.04,0c0.03,-0.72 0.48,-1.15 1.26,-1.15c0.73,0 1.24,0.39 1.24,1.35l0,0.27c-0.47,0.03 -1.33,0.12 -1.9,0.21c-2.21,0.34 -2.96,1.18 -2.96,2.43c0,1.32 0.98,2.31 2.6,2.31c1.05,0 1.9,-0.39 2.47,-1.2l0.03,0c0,0.37 0.04,0.7 0.11,1.02l1.89,0c-0.14,-0.51 -0.21,-1.13 -0.21,-2.09l0,-2.76c0,-1.99 -1.11,-3.01 -3.27,-3.01Zm1.24,4.65c-0,0.69 -0.07,1.09 -0.43,1.45c-0.3,0.3 -0.77,0.44 -1.2,0.44c-0.74,0 -1.13,-0.39 -1.13,-0.96c-0,-0.62 0.36,-0.9 1.23,-1.05c0.45,-0.08 1.09,-0.14 1.53,-0.17l-0,0.29Zm6.81,-4.65c-1.88,0 -3.14,0.97 -3.14,2.34c-0,1.77 1.36,2.07 2.64,2.4c1.18,0.31 1.75,0.45 1.75,1.11c-0,0.45 -0.38,0.73 -1.11,0.73c-0.87,0 -1.33,-0.43 -1.33,-1.2l-2.13,0c-0,1.85 1.3,2.72 3.41,2.72c2.07,0 3.37,-0.96 3.37,-2.39c-0,-1.86 -1.5,-2.2 -2.87,-2.56c-1.16,-0.3 -1.63,-0.44 -1.63,-0.98c-0,-0.43 0.35,-0.7 1.03,-0.7c0.75,0 1.2,0.33 1.2,1.11l2.01,0c-0,-1.7 -1.2,-2.58 -3.2,-2.58Zm11.34,0.24l-2.16,0l-0.82,2.55c-0.34,1.05 -0.63,2.13 -0.89,3.19l-0.03,0c-0.23,-1.06 -0.52,-2.14 -0.83,-3.19l-0.78,-2.55l-2.25,0l2.16,6.19c0.29,0.86 0.35,1.1 0.35,1.38c0,0.75 -0.55,1.24 -1.39,1.24c-0.31,0 -0.6,-0.05 -0.81,-0.13l0,1.68c0.32,0.08 0.72,0.12 1.1,0.12c1.9,0 2.86,-0.67 3.63,-2.82l2.72,-7.66Z" style="fill:#0000dc;fill-rule:nonzero;"/></svg>