<svg xmlns="http://www.w3.org/2000/svg" xmlns:xlink="http://www.w3.org/1999/xlink" viewBox="0 0 585.73 242.97"><defs><style>.cls-1{font-size:30px;font-family:FuturaTOT-Book, Futura T OT;letter-spacing:0.22em;}.cls-1,.cls-14{fill:#1a171b;}.cls-2{letter-spacing:0.19em;}.cls-3{fill:none;stroke:#1a171b;stroke-miterlimit:10;stroke-width:3px;}.cls-4{fill:url(#linear-gradient);}.cls-5{fill:url(#linear-gradient-2);}.cls-6{fill:url(#linear-gradient-3);}.cls-7{fill:url(#linear-gradient-4);}.cls-8{fill:url(#linear-gradient-5);}.cls-9{fill:url(#linear-gradient-6);}.cls-10{fill:url(#linear-gradient-7);}.cls-11{fill:url(#linear-gradient-8);}.cls-12{fill:url(#linear-gradient-9);}.cls-13{fill:url(#linear-gradient-10);}</style><linearGradient id="linear-gradient" x1="139.66" y1="177.48" x2="18.29" y2="57" gradientUnits="userSpaceOnUse"><stop offset="0.4" stop-color="#071940"/><stop offset="0.54" stop-color="#0c1f4a"/><stop offset="0.77" stop-color="#1a3164"/><stop offset="1" stop-color="#2b4583"/></linearGradient><linearGradient id="linear-gradient-2" x1="120.75" y1="196.53" x2="-0.62" y2="76.05" xlink:href="#linear-gradient"/><linearGradient id="linear-gradient-3" x1="94.04" y1="223.45" x2="-27.34" y2="102.97" xlink:href="#linear-gradient"/><linearGradient id="linear-gradient-4" x1="141.9" y1="175.22" x2="20.53" y2="54.75" xlink:href="#linear-gradient"/><linearGradient id="linear-gradient-5" x1="115.57" y1="201.74" x2="-5.8" y2="81.28" xlink:href="#linear-gradient"/><linearGradient id="linear-gradient-6" x1="114.01" y1="203.32" x2="-7.35" y2="82.86" xlink:href="#linear-gradient"/><linearGradient id="linear-gradient-7" x1="70.72" y1="246.94" x2="-50.66" y2="126.46" xlink:href="#linear-gradient"/><linearGradient id="linear-gradient-8" x1="98.65" y1="218.79" x2="-22.72" y2="98.32" xlink:href="#linear-gradient"/><linearGradient id="linear-gradient-9" x1="175.21" y1="141.67" x2="53.83" y2="21.19" xlink:href="#linear-gradient"/><linearGradient id="linear-gradient-10" x1="115.03" y1="202.3" x2="-6.35" y2="81.82" xlink:href="#linear-gradient"/></defs><title>Logo EN colour</title><g id="Layer_2" data-name="Layer 2"><g id="Vrstva_1" data-name="Vrstva 1"><text class="cls-1" transform="translate(190.66 25.01)">FUNDED <tspan class="cls-2" x="161.61" y="0">B</tspan><tspan x="183.09" y="0">Y</tspan></text><line class="cls-3" y1="16.01" x2="142.23" y2="16.01"/><line class="cls-3" x1="443.5" y1="16.01" x2="585.73" y2="16.01"/><path class="cls-4" d="M50.81,131.65a35.29,35.29,0,0,1,27.1,7.06A82.06,82.06,0,0,0,94.25,90,45.69,45.69,0,0,0,50.81,131.65Z"/><path class="cls-5" d="M20,171.53a36.69,36.69,0,0,1-.25-4.1,36.22,36.22,0,0,1,23.37-33.8A53.21,53.21,0,0,1,94,82.5c-.23-2.73-.61-5.43-1.1-8.08H0v96.67a82.77,82.77,0,0,0,11.77.85C14.56,171.94,17.32,171.8,20,171.53Z"/><path class="cls-6" d="M54.62,168.63a89.27,89.27,0,0,1-25.32,9.14,28.6,28.6,0,0,0,48.82,7.8A53.38,53.38,0,0,1,54.62,168.63Z"/><path class="cls-7" d="M83.43,143.9a35.94,35.94,0,0,1,6.18,36.83,44.65,44.65,0,0,0,32.08-7.2V97.73A45.38,45.38,0,0,0,101.8,90.3,89.56,89.56,0,0,1,83.43,143.9Z"/><path class="cls-8" d="M56,138.79a28.72,28.72,0,0,0-5.18.5,45.29,45.29,0,0,0,6,19.22,83.22,83.22,0,0,0,16.29-14A28.44,28.44,0,0,0,56,138.79Z"/><path class="cls-9" d="M85.87,187.8a36.43,36.43,0,0,1-7.93,8.3h43.73V182.37a53.06,53.06,0,0,1-35.81,5.43Z"/><path class="cls-10" d="M21.69,178.94a91.25,91.25,0,0,1-9.91.56A90.08,90.08,0,0,1,0,178.7v17.39H34A36.37,36.37,0,0,1,21.69,178.94Z"/><path class="cls-11" d="M27.33,167.43a29.26,29.26,0,0,0,.16,3,81.75,81.75,0,0,0,22.84-8.08,52.76,52.76,0,0,1-6.9-20.62A28.63,28.63,0,0,0,27.33,167.43Z"/><path class="cls-12" d="M100.52,74.42c.46,2.7.8,5.44,1,8.22a52.81,52.81,0,0,1,20.15,6.26V74.42Z"/><path class="cls-13" d="M82.15,179a28.45,28.45,0,0,0-3.63-29.19,90.69,90.69,0,0,1-17.4,14.9A45.88,45.88,0,0,0,82.15,179Z"/><path class="cls-14" d="M12.88,230a6.61,6.61,0,0,0-4.77-2.08,6.51,6.51,0,0,0-6.35,6.56,6.43,6.43,0,0,0,6.37,6.42,6.64,6.64,0,0,0,4.74-2.05V241a8,8,0,0,1-4.74,1.53,8.14,8.14,0,1,1,.09-16.28,7.45,7.45,0,0,1,4.65,1.55Z"/><path class="cls-14" d="M37.82,240.63v1.63H26.54l8.59-14.11H27.65v-1.63H38l-8.57,14.11Z"/><path class="cls-14" d="M54.35,228.14v4.69h6.21v1.63H54.35v6.16h6.37v1.63H52.58V226.52h8.14v1.63Z"/><path class="cls-14" d="M87.81,230A6.62,6.62,0,0,0,83,227.91a6.5,6.5,0,0,0-6.35,6.56,6.43,6.43,0,0,0,6.37,6.42,6.64,6.64,0,0,0,4.74-2.05V241a8.05,8.05,0,0,1-4.74,1.53,8.14,8.14,0,1,1,.09-16.28,7.46,7.46,0,0,1,4.65,1.55Z"/><path class="cls-14" d="M112.77,232.93v-6.42h1.77v15.74h-1.77v-7.69h-8v7.69H103V226.52h1.77v6.42Z"/><path class="cls-14" d="M155.39,229.61a2.85,2.85,0,0,0-2.71-1.7,2.47,2.47,0,0,0-2.59,2.43,2,2,0,0,0,1,1.7,13.75,13.75,0,0,0,2.71,1.32c2.52,1.11,3.56,2.36,3.56,4.34a4.87,4.87,0,0,1-5,4.84,4.77,4.77,0,0,1-4.84-4.06l1.7-.47a4,4,0,0,0,.64,1.6,3.19,3.19,0,0,0,5.73-1.82,2.49,2.49,0,0,0-1.3-2.24,16.45,16.45,0,0,0-2.78-1.37c-2.27-1-3.19-2.15-3.19-3.87a4.15,4.15,0,0,1,4.41-4.06,4.46,4.46,0,0,1,4.06,2.45Z"/><path class="cls-14" d="M184.53,230a6.62,6.62,0,0,0-4.77-2.08,6.5,6.5,0,0,0-6.35,6.56,6.43,6.43,0,0,0,6.37,6.42,6.64,6.64,0,0,0,4.74-2.05V241a8.05,8.05,0,0,1-4.74,1.53,8.14,8.14,0,1,1,.09-16.28,7.46,7.46,0,0,1,4.65,1.55Z"/><path class="cls-14" d="M201.46,242.25h-1.77V226.52h1.77Z"/><path class="cls-14" d="M219.24,228.14v4.69h6.21v1.63h-6.21v6.16h6.37v1.63h-8.14V226.52h8.14v1.63Z"/><path class="cls-14" d="M240.78,225.85,253,238.71v-12.2h1.77V243l-12.25-12.84v12.12h-1.77Z"/><path class="cls-14" d="M282.83,230a6.61,6.61,0,0,0-4.77-2.08,6.51,6.51,0,0,0-6.35,6.56,6.43,6.43,0,0,0,6.37,6.42,6.64,6.64,0,0,0,4.74-2.05V241a8.05,8.05,0,0,1-4.74,1.53,8.14,8.14,0,1,1,.09-16.28,7.46,7.46,0,0,1,4.65,1.55Z"/><path class="cls-14" d="M299.76,228.14v4.69H306v1.63h-6.21v6.16h6.37v1.63H298V226.52h8.14v1.63Z"/><path class="cls-14" d="M340.89,228.14v4.69h5.22v1.63h-5.22v7.79h-1.77V226.52h7.15v1.63Z"/><path class="cls-14" d="M376.78,234.4a8.2,8.2,0,0,1-8.26,8.14,8.4,8.4,0,0,1-6.09-2.76,8.07,8.07,0,0,1-2-5.48,8.19,8.19,0,0,1,16.38.09Zm-14.61-.09a6.33,6.33,0,0,0,2,4.79,6.49,6.49,0,1,0-2-4.79Z"/><path class="cls-14" d="M393.72,236.17a5.48,5.48,0,0,0,.52,3,4.09,4.09,0,0,0,6.63,0,5.5,5.5,0,0,0,.52-3v-9.65h1.77v10.12a5.52,5.52,0,0,1-1,3.73,5.88,5.88,0,0,1-9.13,0,5.49,5.49,0,0,1-1-3.73V226.52h1.77Z"/><path class="cls-14" d="M419.2,225.85l12.25,12.86v-12.2h1.77V243L421,230.13v12.12H419.2Z"/><path class="cls-14" d="M449.23,226.52h3.23a8.25,8.25,0,0,1,5.78,1.82,7.72,7.72,0,0,1,2.72,6,7.64,7.64,0,0,1-2.76,6.07,8.17,8.17,0,0,1-5.76,1.82h-3.21Zm3.3,14.11a6.55,6.55,0,0,0,4.51-1.44,6.46,6.46,0,0,0,0-9.61,6.61,6.61,0,0,0-4.53-1.44H451v12.48Z"/><path class="cls-14" d="M477.33,237.79l-1.89,4.46h-1.91l7.25-16.49,7.08,16.49h-1.93l-1.86-4.46Zm3.42-7.93-2.69,6.3h5.31Z"/><path class="cls-14" d="M504.84,242.25h-1.77V228.14h-3.8v-1.63h9.39v1.63h-3.82Z"/><path class="cls-14" d="M524.74,242.25H523V226.52h1.77Z"/><path class="cls-14" d="M556.26,234.4a8.2,8.2,0,0,1-8.26,8.14,8.4,8.4,0,0,1-6.09-2.76,8.05,8.05,0,0,1-2-5.48,8.19,8.19,0,0,1,16.38.09Zm-14.61-.09a6.34,6.34,0,0,0,2,4.79,6.39,6.39,0,0,0,10.83-4.7,6.42,6.42,0,1,0-12.84-.09Z"/><path class="cls-14" d="M571.43,225.85l12.25,12.86v-12.2h1.77V243L573.2,230.13v12.12h-1.77Z"/><path class="cls-14" d="M273.44,137.78c0,15.7-1.64,23.55-6.75,32.32-9.68,16.8-30.49,28.12-51.67,28.12-34.51,0-63-28.3-63-62.44,0-34.69,28.48-63,63.54-63a61.24,61.24,0,0,1,38.16,13.14c4.93,3.84,8.4,7.67,14.6,15.34l-6.39,4.93c-5.11-6.75-7.85-9.85-11.69-13a54.27,54.27,0,0,0-35.05-13c-29.94,0-55.14,25.56-55.14,55.69,0,29.95,25,54.78,54.78,54.78,17.71,0,36.33-9.86,44.55-23.37,3.65-5.84,5.11-11.87,5.48-22.28H222.13v-7.31Z"/><path class="cls-14" d="M306.13,156.22l-16.25,40h-8.76L332.25,70.77,383,196.2h-8.95l-16.07-40Zm26.11-65-23.19,57.69h46Z"/><path class="cls-14" d="M499.13,99.44c-5.66-6.21-8.58-8.77-14.24-11.87a56,56,0,0,0-26.84-7.3c-29.58,0-54.78,25.74-54.78,55.69a52.43,52.43,0,0,0,19,40.71c10.59,8.95,23.55,14.06,35.79,14.06,9.68,0,21.36-3.47,30.49-9.31,3.83-2.19,6-4.2,10.59-8.95v10.59c-13.51,10.59-25.92,15.16-40.53,15.16-34.33,0-63.54-28.66-63.54-62.62,0-34.14,28.85-62.81,63.18-62.81,15.33,0,28.11,4.93,40.89,15.7Zm-41.08-33.6L435.23,46.67l6.58-5.11,16.25,13.51L474.3,41.56l6.39,5.11Z"/><path class="cls-14" d="M585.69,196.2H576l-39.08-57.51h-3.65V196.2h-7.85V74.43H542.6c12.42,0,19.36,1.64,25.74,6.2,7.85,5.47,12.23,14.79,12.23,26.1,0,12.6-5.66,22.64-15.34,27.94-4.74,2.56-9.67,3.47-19.35,4ZM545,131.39c17.53,0,27.57-9.12,27.57-24.83,0-9.49-4.2-17.53-10.77-21.18-4.57-2.56-10.59-3.65-18.44-3.65h-10v49.66Z"/></g></g></svg>